<svg id="Capa_1" data-name="Capa 1" xmlns="http://www.w3.org/2000/svg" viewBox="0 0 462.14 81.31"><defs><style>.cls-1,.cls-2{fill:none;stroke:#000;stroke-linecap:round;stroke-miterlimit:10;}.cls-1{stroke-width:2px;}</style></defs><g id="Resistencia"><line class="cls-1" x1="88.95" y1="69.33" x2="88.95" y2="56.83"/><line class="cls-1" x1="82.7" y1="53.71" x2="88.95" y2="56.85"/><line class="cls-1" x1="95.2" y1="47.46" x2="82.7" y2="53.71"/><line class="cls-1" x1="82.7" y1="41.21" x2="95.2" y2="47.46"/><line class="cls-1" x1="95.2" y1="34.96" x2="82.7" y2="41.21"/><line class="cls-1" x1="82.7" y1="28.71" x2="95.2" y2="34.96"/><line class="cls-1" x1="88.95" y1="25.58" x2="82.7" y2="28.71"/><line class="cls-1" x1="88.95" y1="19.33" x2="88.95" y2="25.58"/></g><line class="cls-2" x1="30.17" y1="25.16" x2="38.5" y2="25.16"/><line class="cls-2" x1="34.33" y1="20.99" x2="34.33" y2="29.32"/><line class="cls-1" x1="1" y1="35.68" x2="38.5" y2="35.68"/><line class="cls-1" x1="13.19" y1="44.33" x2="27.06" y2="44.33"/><line class="cls-1" x1="20.13" y1="44.33" x2="20.13" y2="60.26"/><line class="cls-1" x1="20.13" y1="19.75" x2="20.13" y2="35.68"/><line class="cls-1" x1="20.13" y1="19.75" x2="20.13" y2="1"/><line class="cls-1" x1="229.38" y1="1" x2="20.13" y2="1"/><line class="cls-1" x1="20.13" y1="60.26" x2="20.13" y2="80.31"/><line class="cls-1" x1="20.13" y1="80.31" x2="229.38" y2="80.31"/><path d="M964.1,535.78v7h-1v-6.1h-1.57v-.87Z" transform="translate(-858.74 -499.79)"/><path d="M967,542.41a2.85,2.85,0,0,1-1-1.23,5.27,5.27,0,0,1,0-3.83,2.85,2.85,0,0,1,1-1.23,2.59,2.59,0,0,1,1.47-.42,2.62,2.62,0,0,1,1.46.42,2.9,2.9,0,0,1,1,1.23,5.14,5.14,0,0,1,0,3.83,2.9,2.9,0,0,1-1,1.23,2.62,2.62,0,0,1-1.46.42A2.59,2.59,0,0,1,967,542.41Zm2.81-1.15a3.38,3.38,0,0,0,.5-2,3.41,3.41,0,0,0-.5-2,1.58,1.58,0,0,0-1.34-.68,1.57,1.57,0,0,0-1.35.68,3.34,3.34,0,0,0-.51,2,3.3,3.3,0,0,0,.51,2,1.57,1.57,0,0,0,1.35.69A1.59,1.59,0,0,0,969.82,541.26Z" transform="translate(-858.74 -499.79)"/><path d="M973.65,542.41a2.83,2.83,0,0,1-1-1.23,5.14,5.14,0,0,1,0-3.83,2.83,2.83,0,0,1,1-1.23,2.63,2.63,0,0,1,1.47-.42,2.6,2.6,0,0,1,1.46.42,2.76,2.76,0,0,1,1,1.23,5.14,5.14,0,0,1,0,3.83,2.76,2.76,0,0,1-1,1.23,2.6,2.6,0,0,1-1.46.42A2.63,2.63,0,0,1,973.65,542.41Zm2.81-1.15a3.3,3.3,0,0,0,.51-2,3.34,3.34,0,0,0-.51-2,1.56,1.56,0,0,0-1.34-.68,1.59,1.59,0,0,0-1.35.68,3.41,3.41,0,0,0-.5,2,3.38,3.38,0,0,0,.5,2,1.6,1.6,0,0,0,1.35.69A1.57,1.57,0,0,0,976.46,541.26Z" transform="translate(-858.74 -499.79)"/><path d="M978.53,541.89h2a3.38,3.38,0,0,1-.93-1.19,3.49,3.49,0,0,1-.33-1.52,3.41,3.41,0,0,1,.48-1.8,3.32,3.32,0,0,1,1.33-1.24,4.26,4.26,0,0,1,3.77,0,3.33,3.33,0,0,1,1.81,3,3.49,3.49,0,0,1-.33,1.52,3.38,3.38,0,0,1-.93,1.19h1.95v.86h-3.45V542a3.21,3.21,0,0,0,1.31-1.15,2.91,2.91,0,0,0,.46-1.57,2.71,2.71,0,0,0-.35-1.37,2.35,2.35,0,0,0-1-.94,3.11,3.11,0,0,0-2.79,0,2.35,2.35,0,0,0-1,.94,2.71,2.71,0,0,0-.35,1.37,2.92,2.92,0,0,0,.46,1.58A3.18,3.18,0,0,0,982,542v.8h-3.45Z" transform="translate(-858.74 -499.79)"/><path d="M1033.73,539.42a1.87,1.87,0,0,1,.53,1.36,2,2,0,0,1-1.19,1.85,3.31,3.31,0,0,1-1.45.29,4.56,4.56,0,0,1-1.43-.23,3.13,3.13,0,0,1-1.13-.62l.46-.79a2.44,2.44,0,0,0,.92.54,3.29,3.29,0,0,0,1.18.21,2,2,0,0,0,1.21-.33,1.08,1.08,0,0,0,.44-.91,1.06,1.06,0,0,0-.43-.89,2.13,2.13,0,0,0-1.3-.32H1031v-.7l1.76-2.15h-3.36v-.87h4.6v.68l-1.82,2.25A2.51,2.51,0,0,1,1033.73,539.42Z" transform="translate(-858.74 -499.79)"/><path d="M1036.57,542.49a2.76,2.76,0,0,1-1-1.23,5.14,5.14,0,0,1,0-3.83,2.82,2.82,0,0,1,1-1.23,2.77,2.77,0,0,1,2.93,0,2.82,2.82,0,0,1,1,1.23,5.14,5.14,0,0,1,0,3.83,2.76,2.76,0,0,1-1,1.23,2.71,2.71,0,0,1-2.93,0Zm2.81-1.15a3.31,3.31,0,0,0,.5-2,3.34,3.34,0,0,0-.5-2,1.6,1.6,0,0,0-1.34-.68,1.61,1.61,0,0,0-1.35.68,3.34,3.34,0,0,0-.5,2,3.31,3.31,0,0,0,.5,2,1.6,1.6,0,0,0,1.35.69A1.58,1.58,0,0,0,1039.38,541.34Z" transform="translate(-858.74 -499.79)"/><path d="M1044.32,540.37l-1.1,1v1.44h-1v-7.39h1v4.74l2.88-2.63h1.16l-2.22,2.18,2.44,3.1h-1.18Z" transform="translate(-858.74 -499.79)"/><path d="M1047.59,542h2a3.29,3.29,0,0,1-.94-1.19,3.49,3.49,0,0,1-.33-1.52,3.42,3.42,0,0,1,.49-1.8,3.36,3.36,0,0,1,1.32-1.24,4.28,4.28,0,0,1,3.78,0,3.45,3.45,0,0,1,1.33,1.24,3.41,3.41,0,0,1,.48,1.8,3.49,3.49,0,0,1-.33,1.52,3.29,3.29,0,0,1-.94,1.19h2v.86h-3.45V542a3.21,3.21,0,0,0,1.31-1.15,2.9,2.9,0,0,0,.45-1.57,2.7,2.7,0,0,0-.34-1.37,2.35,2.35,0,0,0-1-.94,3,3,0,0,0-1.4-.33,2.88,2.88,0,0,0-1.39.33,2.31,2.31,0,0,0-1,.94,2.94,2.94,0,0,0,.12,2.95A3.18,3.18,0,0,0,1051,542v.8h-3.45Z" transform="translate(-858.74 -499.79)"/><line class="cls-1" x1="88.95" y1="19.33" x2="88.95" y2="1"/><line class="cls-1" x1="88.95" y1="69.33" x2="88.95" y2="80.31"/><g id="Resistencia-2" data-name="Resistencia"><line class="cls-1" x1="412.11" y1="69.33" x2="412.11" y2="56.83"/><line class="cls-1" x1="405.86" y1="53.71" x2="412.11" y2="56.85"/><line class="cls-1" x1="418.36" y1="47.46" x2="405.86" y2="53.71"/><line class="cls-1" x1="405.86" y1="41.21" x2="418.36" y2="47.46"/><line class="cls-1" x1="418.36" y1="34.96" x2="405.86" y2="41.21"/><line class="cls-1" x1="405.86" y1="28.71" x2="418.36" y2="34.96"/><line class="cls-1" x1="412.11" y1="25.58" x2="405.86" y2="28.71"/><line class="cls-1" x1="412.11" y1="19.33" x2="412.11" y2="25.58"/></g><line class="cls-2" x1="353.34" y1="25.16" x2="361.67" y2="25.16"/><line class="cls-2" x1="357.5" y1="20.99" x2="357.5" y2="29.32"/><line class="cls-1" x1="324.17" y1="35.68" x2="361.67" y2="35.68"/><line class="cls-1" x1="336.36" y1="44.33" x2="350.23" y2="44.33"/><line class="cls-1" x1="343.3" y1="44.33" x2="343.3" y2="60.26"/><line class="cls-1" x1="343.3" y1="19.75" x2="343.3" y2="35.68"/><line class="cls-1" x1="343.3" y1="19.75" x2="343.3" y2="1"/><line class="cls-1" x1="412.11" y1="1" x2="343.3" y2="1"/><line class="cls-2" x1="301.8" y1="45.81" x2="284.29" y2="45.81"/><line class="cls-2" x1="301.8" y1="40.21" x2="284.29" y2="40.21"/><line class="cls-2" x1="301.8" y1="34.62" x2="284.29" y2="34.62"/><line class="cls-1" x1="343.3" y1="60.26" x2="343.3" y2="80.31"/><line class="cls-1" x1="343.3" y1="80.31" x2="412.11" y2="80.31"/><path d="M1289.54,536.61a3.86,3.86,0,0,1,.76,2.57,4.5,4.5,0,0,1-.41,2,2.9,2.9,0,0,1-1.16,1.24,3.44,3.44,0,0,1-1.73.42,4.22,4.22,0,0,1-1-.1,2.81,2.81,0,0,1-.77-.3l.38-.78a2.42,2.42,0,0,0,1.34.33,2.18,2.18,0,0,0,1.7-.68,2.78,2.78,0,0,0,.61-1.95v-.25a1.9,1.9,0,0,1-.82.68,3.17,3.17,0,0,1-2.42,0,2.14,2.14,0,0,1-.85-.75,2.05,2.05,0,0,1-.3-1.11,2.09,2.09,0,0,1,.32-1.15,2.22,2.22,0,0,1,.88-.78,2.91,2.91,0,0,1,1.26-.27A2.66,2.66,0,0,1,1289.54,536.61ZM1288.3,539a1.44,1.44,0,0,0,.57-.49,1.28,1.28,0,0,0,0-1.36,1.38,1.38,0,0,0-.57-.49,2.06,2.06,0,0,0-.9-.18,1.65,1.65,0,0,0-1.11.36,1.26,1.26,0,0,0-.42,1,1.23,1.23,0,0,0,.42,1,1.7,1.7,0,0,0,1.16.37A1.92,1.92,0,0,0,1288.3,539Z" transform="translate(-858.74 -499.79)"/><path d="M1296.44,539.76a1.65,1.65,0,0,1,.32,1,1.83,1.83,0,0,1-.34,1.09,2.19,2.19,0,0,1-1,.72,4.12,4.12,0,0,1-1.47.24,4,4,0,0,1-1.46-.24,2.11,2.11,0,0,1-1-.72,1.77,1.77,0,0,1-.34-1.09,1.65,1.65,0,0,1,.31-1,1.91,1.91,0,0,1,.91-.66,1.85,1.85,0,0,1-.73-.61,1.79,1.79,0,0,1,.07-1.9,1.92,1.92,0,0,1,.88-.66,3.58,3.58,0,0,1,1.32-.23,3.63,3.63,0,0,1,1.33.23,1.87,1.87,0,0,1,.88.66,1.64,1.64,0,0,1,.32,1,1.55,1.55,0,0,1-.26.89,1.79,1.79,0,0,1-.73.62A1.94,1.94,0,0,1,1296.44,539.76Zm-1.16,1.92a1.09,1.09,0,0,0,.48-.93,1.05,1.05,0,0,0-.48-.91,2.73,2.73,0,0,0-2.6,0,1.07,1.07,0,0,0-.47.91,1.1,1.1,0,0,0,.47.93,2.59,2.59,0,0,0,2.6,0Zm-2.42-4.87a1,1,0,0,0-.41.82,1,1,0,0,0,.41.82,1.82,1.82,0,0,0,1.12.3,1.93,1.93,0,0,0,1.14-.3,1,1,0,0,0,0-1.64,1.91,1.91,0,0,0-1.13-.3A1.84,1.84,0,0,0,1292.86,536.81Z" transform="translate(-858.74 -499.79)"/><path d="M1297.85,542.62a.7.7,0,0,1,0-1,.68.68,0,0,1,.48-.19.63.63,0,0,1,.47.19.64.64,0,0,1,.19.49.66.66,0,0,1-.2.49.6.6,0,0,1-.46.19A.68.68,0,0,1,1297.85,542.62Z" transform="translate(-858.74 -499.79)"/><path d="M1304.18,538.78a2.1,2.1,0,0,1,.83,3,2.13,2.13,0,0,1-.88.77,2.91,2.91,0,0,1-1.26.27,2.69,2.69,0,0,1-2.17-.9,3.88,3.88,0,0,1-.76-2.57,4.34,4.34,0,0,1,.41-2,2.82,2.82,0,0,1,1.16-1.25,3.42,3.42,0,0,1,1.72-.42,4.22,4.22,0,0,1,1,.1,2.76,2.76,0,0,1,.78.31l-.38.78a2.39,2.39,0,0,0-1.34-.33,2.19,2.19,0,0,0-1.7.67,2.81,2.81,0,0,0-.62,2c0,.1,0,.19,0,.25a2,2,0,0,1,.82-.69,3,3,0,0,1,1.19-.23A2.91,2.91,0,0,1,1304.18,538.78Zm-.24,2.88a1.24,1.24,0,0,0,.43-1,1.21,1.21,0,0,0-.43-1,1.77,1.77,0,0,0-1.16-.36,1.89,1.89,0,0,0-.84.18,1.39,1.39,0,0,0-.56.48,1.22,1.22,0,0,0-.21.69,1.2,1.2,0,0,0,.2.67,1.34,1.34,0,0,0,.56.49,1.93,1.93,0,0,0,.9.19A1.67,1.67,0,0,0,1303.94,541.66Z" transform="translate(-858.74 -499.79)"/><path d="M1311.27,539.76a1.65,1.65,0,0,1,.32,1,1.83,1.83,0,0,1-.34,1.09,2.19,2.19,0,0,1-1,.72,4.12,4.12,0,0,1-1.47.24,4,4,0,0,1-1.46-.24,2.19,2.19,0,0,1-1-.72,1.83,1.83,0,0,1-.34-1.09,1.65,1.65,0,0,1,.32-1,1.91,1.91,0,0,1,.91-.66,1.85,1.85,0,0,1-.73-.61,1.73,1.73,0,0,1,.07-1.9,1.92,1.92,0,0,1,.88-.66,3.58,3.58,0,0,1,1.32-.23,3.67,3.67,0,0,1,1.33.23,1.92,1.92,0,0,1,.88.66,1.64,1.64,0,0,1,.32,1,1.55,1.55,0,0,1-.26.89,1.79,1.79,0,0,1-.73.62A2,2,0,0,1,1311.27,539.76Zm-1.16,1.92a1.09,1.09,0,0,0,.48-.93,1.05,1.05,0,0,0-.48-.91,2.25,2.25,0,0,0-1.3-.33,2.21,2.21,0,0,0-1.3.33,1.07,1.07,0,0,0-.47.91,1.1,1.1,0,0,0,.47.93,2.14,2.14,0,0,0,1.3.35A2.18,2.18,0,0,0,1310.11,541.68Zm-2.42-4.87a1,1,0,0,0,0,1.64,1.87,1.87,0,0,0,1.13.3,1.93,1.93,0,0,0,1.14-.3,1,1,0,0,0,0-1.64,1.94,1.94,0,0,0-1.13-.3A1.84,1.84,0,0,0,1307.69,536.81Z" transform="translate(-858.74 -499.79)"/><path d="M1312.11,541.89h2a3.29,3.29,0,0,1-.94-1.19,3.49,3.49,0,0,1-.33-1.52,3.41,3.41,0,0,1,.48-1.8,3.45,3.45,0,0,1,1.33-1.24,4.28,4.28,0,0,1,3.78,0,3.36,3.36,0,0,1,1.32,1.24,3.42,3.42,0,0,1,.49,1.8,3.64,3.64,0,0,1-.33,1.52,3.4,3.4,0,0,1-.94,1.19h2v.86h-3.45V542a3.24,3.24,0,0,0,1.32-1.15,2.9,2.9,0,0,0,.45-1.57,2.71,2.71,0,0,0-.35-1.37,2.35,2.35,0,0,0-1-.94,2.88,2.88,0,0,0-1.39-.33,2.92,2.92,0,0,0-1.4.33,2.35,2.35,0,0,0-1,.94,2.7,2.7,0,0,0-.34,1.37,2.83,2.83,0,0,0,.46,1.58,3.15,3.15,0,0,0,1.3,1.14v.8h-3.45Z" transform="translate(-858.74 -499.79)"/><line class="cls-1" x1="412.11" y1="19.33" x2="412.11" y2="1"/><line class="cls-1" x1="412.11" y1="69.33" x2="412.11" y2="80.31"/><g id="Resistencia-3" data-name="Resistencia"><line class="cls-1" x1="159.26" y1="69.33" x2="159.26" y2="56.83"/><line class="cls-1" x1="153.01" y1="53.71" x2="159.26" y2="56.85"/><line class="cls-1" x1="165.51" y1="47.46" x2="153.01" y2="53.71"/><line class="cls-1" x1="153.01" y1="41.21" x2="165.51" y2="47.46"/><line class="cls-1" x1="165.51" y1="34.96" x2="153.01" y2="41.21"/><line class="cls-1" x1="153.01" y1="28.71" x2="165.51" y2="34.96"/><line class="cls-1" x1="159.26" y1="25.58" x2="153.01" y2="28.71"/><line class="cls-1" x1="159.26" y1="19.33" x2="159.26" y2="25.58"/></g><line class="cls-1" x1="159.26" y1="19.33" x2="159.26" y2="1"/><line class="cls-1" x1="159.26" y1="69.33" x2="159.26" y2="80.31"/><path d="M1102.34,536.41v7h-1v-6.11h-1.57v-.87Z" transform="translate(-858.74 -499.79)"/><path d="M1105.24,543.05a3,3,0,0,1-1-1.23,4.54,4.54,0,0,1-.37-1.92,4.49,4.49,0,0,1,.37-1.91,2.83,2.83,0,0,1,1-1.23,2.64,2.64,0,0,1,1.47-.43,2.61,2.61,0,0,1,1.46.43,2.76,2.76,0,0,1,1,1.23,4.49,4.49,0,0,1,.37,1.91,4.54,4.54,0,0,1-.37,1.92,2.88,2.88,0,0,1-1,1.23,2.6,2.6,0,0,1-1.46.42A2.63,2.63,0,0,1,1105.24,543.05Zm2.81-1.15a3.34,3.34,0,0,0,.5-2,3.31,3.31,0,0,0-.5-2,1.57,1.57,0,0,0-1.34-.69,1.6,1.6,0,0,0-1.35.69,3.38,3.38,0,0,0-.5,2,3.41,3.41,0,0,0,.5,2,1.61,1.61,0,0,0,1.35.68A1.58,1.58,0,0,0,1108.05,541.9Z" transform="translate(-858.74 -499.79)"/><path d="M1113,540.93l-1.1,1v1.44h-1V536h1v4.74l2.88-2.63h1.16l-2.22,2.18,2.44,3.1H1115Z" transform="translate(-858.74 -499.79)"/><path d="M1116.26,542.52h2a3.37,3.37,0,0,1-.94-1.18,3.56,3.56,0,0,1-.32-1.53,3.41,3.41,0,0,1,.48-1.8,3.33,3.33,0,0,1,1.32-1.23,4.19,4.19,0,0,1,3.78,0,3.3,3.3,0,0,1,1.81,3,3.56,3.56,0,0,1-.33,1.53,3.26,3.26,0,0,1-.94,1.18h2v.87h-3.45v-.81a3.12,3.12,0,0,0,1.31-1.14,2.93,2.93,0,0,0,.45-1.58,2.7,2.7,0,0,0-.34-1.37,2.39,2.39,0,0,0-1-.93,2.84,2.84,0,0,0-1.4-.34,2.78,2.78,0,0,0-1.39.34,2.27,2.27,0,0,0-1,.93,2.71,2.71,0,0,0-.35,1.37,2.87,2.87,0,0,0,.46,1.59,3.16,3.16,0,0,0,1.31,1.13v.81h-3.45Z" transform="translate(-858.74 -499.79)"/><g id="Resistencia-4" data-name="Resistencia"><line class="cls-1" x1="229.38" y1="69.33" x2="229.38" y2="56.83"/><line class="cls-1" x1="223.13" y1="53.71" x2="229.38" y2="56.85"/><line class="cls-1" x1="235.63" y1="47.46" x2="223.13" y2="53.71"/><line class="cls-1" x1="223.13" y1="41.21" x2="235.63" y2="47.46"/><line class="cls-1" x1="235.63" y1="34.96" x2="223.13" y2="41.21"/><line class="cls-1" x1="223.13" y1="28.71" x2="235.63" y2="34.96"/><line class="cls-1" x1="229.38" y1="25.58" x2="223.13" y2="28.71"/><line class="cls-1" x1="229.38" y1="19.33" x2="229.38" y2="25.58"/></g><line class="cls-1" x1="229.38" y1="19.33" x2="229.38" y2="1"/><line class="cls-1" x1="229.38" y1="69.33" x2="229.38" y2="80.31"/></svg>