<svg id="Capa_1" data-name="Capa 1" xmlns="http://www.w3.org/2000/svg" viewBox="0 0 388.1 101.62"><defs><style>.cls-1,.cls-2,.cls-3{fill:none;stroke-linecap:round;stroke-miterlimit:10;}.cls-1,.cls-2{stroke:#000;}.cls-1{stroke-width:2px;}.cls-3{stroke:#1d1d1b;}.cls-4{fill:#1d1d1b;}</style></defs><g id="Resistencia"><line class="cls-1" x1="47.14" y1="21.3" x2="59.64" y2="21.3"/><line class="cls-1" x1="62.75" y1="15.05" x2="59.62" y2="21.3"/><line class="cls-1" x1="69" y1="27.55" x2="62.75" y2="15.05"/><line class="cls-1" x1="75.25" y1="15.05" x2="69" y2="27.55"/><line class="cls-1" x1="81.5" y1="27.55" x2="75.25" y2="15.05"/><line class="cls-1" x1="87.75" y1="15.05" x2="81.5" y2="27.55"/><line class="cls-1" x1="90.89" y1="21.3" x2="87.75" y2="15.05"/><line class="cls-1" x1="97.14" y1="21.3" x2="90.89" y2="21.3"/></g><g id="Resistencia-2" data-name="Resistencia"><line class="cls-1" x1="119.99" y1="21.3" x2="132.49" y2="21.3"/><line class="cls-1" x1="135.6" y1="15.05" x2="132.46" y2="21.3"/><line class="cls-1" x1="141.85" y1="27.55" x2="135.6" y2="15.05"/><line class="cls-1" x1="148.1" y1="15.05" x2="141.85" y2="27.55"/><line class="cls-1" x1="154.35" y1="27.55" x2="148.1" y2="15.05"/><line class="cls-1" x1="160.6" y1="15.05" x2="154.35" y2="27.55"/><line class="cls-1" x1="163.74" y1="21.3" x2="160.6" y2="15.05"/><line class="cls-1" x1="169.99" y1="21.3" x2="163.74" y2="21.3"/></g><line class="cls-2" x1="40.63" y1="45.46" x2="48.96" y2="45.46"/><line class="cls-2" x1="44.79" y1="41.3" x2="44.79" y2="49.63"/><line class="cls-1" x1="11.46" y1="55.98" x2="48.96" y2="55.98"/><line class="cls-1" x1="23.65" y1="64.63" x2="37.52" y2="64.63"/><line class="cls-1" x1="30.58" y1="64.63" x2="30.58" y2="80.56"/><line class="cls-1" x1="30.58" y1="40.05" x2="30.58" y2="55.98"/><line class="cls-1" x1="97.14" y1="21.3" x2="119.99" y2="21.3"/><line class="cls-1" x1="169.99" y1="21.3" x2="190.22" y2="21.3"/><line class="cls-1" x1="30.58" y1="40.05" x2="30.58" y2="21.3"/><line class="cls-1" x1="47.14" y1="21.3" x2="30.58" y2="21.3"/><line class="cls-1" x1="30.58" y1="80.56" x2="30.58" y2="100.62"/><line class="cls-1" x1="190.22" y1="21.3" x2="190.22" y2="100.62"/><line class="cls-1" x1="30.58" y1="100.62" x2="190.22" y2="100.62"/><path d="M668,545.59v9.11h-1.29v-8h-2.06v-1.13Z" transform="translate(-606.24 -545.49)"/><path d="M671.8,554.25a3.64,3.64,0,0,1-1.32-1.6,6,6,0,0,1-.48-2.5,6,6,0,0,1,.48-2.5A3.67,3.67,0,0,1,671.8,546a3.61,3.61,0,0,1,3.83,0,3.67,3.67,0,0,1,1.32,1.61,6,6,0,0,1,.48,2.5,6,6,0,0,1-.48,2.5,3.64,3.64,0,0,1-1.32,1.6,3.55,3.55,0,0,1-3.83,0Zm3.67-1.5a5.47,5.47,0,0,0,0-5.21,2.18,2.18,0,0,0-3.51,0,5.47,5.47,0,0,0,0,5.21,2.16,2.16,0,0,0,3.51,0Z" transform="translate(-606.24 -545.49)"/><path d="M680.49,554.25a3.64,3.64,0,0,1-1.32-1.6,5.87,5.87,0,0,1-.49-2.5,5.81,5.81,0,0,1,.49-2.5,3.67,3.67,0,0,1,1.32-1.61,3.4,3.4,0,0,1,1.92-.55,3.36,3.36,0,0,1,1.9.55,3.76,3.76,0,0,1,1.33,1.61,6,6,0,0,1,.48,2.5,6,6,0,0,1-.48,2.5,3.73,3.73,0,0,1-1.33,1.6,3.37,3.37,0,0,1-1.9.56A3.41,3.41,0,0,1,680.49,554.25Zm3.67-1.5a5.47,5.47,0,0,0,0-5.21,2.05,2.05,0,0,0-1.75-.89,2.08,2.08,0,0,0-1.77.89,5.55,5.55,0,0,0,0,5.21,2.09,2.09,0,0,0,1.77.9A2.06,2.06,0,0,0,684.16,552.75Z" transform="translate(-606.24 -545.49)"/><path d="M686.86,553.57h2.55a4.19,4.19,0,0,1-1.22-1.55,4.53,4.53,0,0,1-.43-2,4.42,4.42,0,0,1,.63-2.35,4.33,4.33,0,0,1,1.73-1.61,5.55,5.55,0,0,1,4.94,0,4.33,4.33,0,0,1,1.73,1.61,4.42,4.42,0,0,1,.63,2.35,4.67,4.67,0,0,1-.43,2,4.32,4.32,0,0,1-1.23,1.55h2.56v1.13h-4.51v-1.05a4.06,4.06,0,0,0,1.71-1.5,3.72,3.72,0,0,0,.6-2,3.59,3.59,0,0,0-.45-1.8,3.15,3.15,0,0,0-1.26-1.22,3.79,3.79,0,0,0-1.82-.43,3.74,3.74,0,0,0-1.82.43,3.15,3.15,0,0,0-1.26,1.22,3.59,3.59,0,0,0-.45,1.8,3.79,3.79,0,0,0,.6,2.07,4.18,4.18,0,0,0,1.7,1.48v1.05h-4.5Z" transform="translate(-606.24 -545.49)"/><path d="M743.71,553.57v1.13h-6.55v-.88l3.71-3.58a4.45,4.45,0,0,0,.92-1.13,2.18,2.18,0,0,0,.23-1,1.37,1.37,0,0,0-.5-1.12,2.31,2.31,0,0,0-1.44-.39,2.88,2.88,0,0,0-2.33,1l-.89-.76a3.56,3.56,0,0,1,1.4-1,5,5,0,0,1,1.94-.36,3.52,3.52,0,0,1,2.28.68,2.27,2.27,0,0,1,.84,1.86,3.16,3.16,0,0,1-.31,1.38,5.54,5.54,0,0,1-1.19,1.48L739,553.57Z" transform="translate(-606.24 -545.49)"/><path d="M751.19,553.57v1.13h-6.55v-.88l3.71-3.58a4.59,4.59,0,0,0,.91-1.13,2.18,2.18,0,0,0,.23-1A1.34,1.34,0,0,0,749,547a2.29,2.29,0,0,0-1.44-.39,2.89,2.89,0,0,0-2.33,1l-.88-.76a3.42,3.42,0,0,1,1.4-1,5,5,0,0,1,1.93-.36,3.52,3.52,0,0,1,2.28.68,2.27,2.27,0,0,1,.84,1.86,3.16,3.16,0,0,1-.31,1.38,5.68,5.68,0,0,1-1.18,1.48l-2.79,2.68Z" transform="translate(-606.24 -545.49)"/><path d="M754.06,554.25a3.73,3.73,0,0,1-1.33-1.6,6,6,0,0,1-.48-2.5,6,6,0,0,1,.48-2.5,3.76,3.76,0,0,1,1.33-1.61,3.4,3.4,0,0,1,1.92-.55,3.36,3.36,0,0,1,1.9.55,3.76,3.76,0,0,1,1.33,1.61,6,6,0,0,1,.48,2.5,6,6,0,0,1-.48,2.5,3.73,3.73,0,0,1-1.33,1.6,3.37,3.37,0,0,1-1.9.56A3.41,3.41,0,0,1,754.06,554.25Zm3.67-1.5a5.55,5.55,0,0,0,0-5.21,2.05,2.05,0,0,0-1.75-.89,2.08,2.08,0,0,0-1.77.89,5.47,5.47,0,0,0,0,5.21,2.09,2.09,0,0,0,1.77.9A2.06,2.06,0,0,0,757.73,552.75Z" transform="translate(-606.24 -545.49)"/><path d="M760.43,553.57H763a4.19,4.19,0,0,1-1.22-1.55,4.53,4.53,0,0,1-.43-2,4.42,4.42,0,0,1,.63-2.35,4.33,4.33,0,0,1,1.73-1.61,5.53,5.53,0,0,1,4.93,0,4.36,4.36,0,0,1,1.74,1.61A4.42,4.42,0,0,1,771,550a4.67,4.67,0,0,1-.43,2,4.32,4.32,0,0,1-1.23,1.55h2.56v1.13h-4.51v-1.05a4.06,4.06,0,0,0,1.71-1.5,3.72,3.72,0,0,0,.6-2,3.59,3.59,0,0,0-.45-1.8,3.15,3.15,0,0,0-1.26-1.22,4.09,4.09,0,0,0-3.65,0,3.19,3.19,0,0,0-1.25,1.22,3.59,3.59,0,0,0-.45,1.8,3.79,3.79,0,0,0,.6,2.07,4.18,4.18,0,0,0,1.7,1.48v1.05h-4.5Z" transform="translate(-606.24 -545.49)"/><path d="M937.12,550.25a2.37,2.37,0,0,1,.7,1.77,2.62,2.62,0,0,1-.39,1.41,2.65,2.65,0,0,1-1.17,1,4.42,4.42,0,0,1-1.89.37,6.21,6.21,0,0,1-1.88-.29,4.17,4.17,0,0,1-1.47-.82l.6-1a3.3,3.3,0,0,0,1.2.71,4.43,4.43,0,0,0,1.55.27,2.54,2.54,0,0,0,1.58-.43,1.51,1.51,0,0,0,0-2.36,2.9,2.9,0,0,0-1.69-.41h-.73v-.91l2.29-2.82h-4.39v-1.13h6v.89l-2.39,2.94A3.19,3.19,0,0,1,937.12,550.25Z" transform="translate(-606.24 -545.49)"/><path d="M945.44,553.57v1.13h-6.55v-.88l3.71-3.58a4.59,4.59,0,0,0,.91-1.13,2,2,0,0,0,.23-1,1.34,1.34,0,0,0-.5-1.12,2.29,2.29,0,0,0-1.44-.39,2.89,2.89,0,0,0-2.33,1l-.88-.76a3.42,3.42,0,0,1,1.4-1,5,5,0,0,1,1.93-.36,3.5,3.5,0,0,1,2.28.68A2.27,2.27,0,0,1,945,548a3.16,3.16,0,0,1-.31,1.38,5.68,5.68,0,0,1-1.18,1.48l-2.79,2.68Z" transform="translate(-606.24 -545.49)"/><path d="M948.31,554.25a3.73,3.73,0,0,1-1.33-1.6,6,6,0,0,1-.48-2.5,6,6,0,0,1,.48-2.5,3.76,3.76,0,0,1,1.33-1.61,3.4,3.4,0,0,1,1.92-.55,3.36,3.36,0,0,1,1.9.55,3.76,3.76,0,0,1,1.33,1.61,6,6,0,0,1,.48,2.5,6,6,0,0,1-.48,2.5,3.73,3.73,0,0,1-1.33,1.6,3.37,3.37,0,0,1-1.9.56A3.41,3.41,0,0,1,948.31,554.25Zm3.67-1.5a5.47,5.47,0,0,0,0-5.21,2.05,2.05,0,0,0-1.75-.89,2.08,2.08,0,0,0-1.77.89,5.55,5.55,0,0,0,0,5.21,2.09,2.09,0,0,0,1.77.9A2.06,2.06,0,0,0,952,552.75Z" transform="translate(-606.24 -545.49)"/><path d="M954.68,553.57h2.55A4.19,4.19,0,0,1,956,552a4.53,4.53,0,0,1-.43-2,4.42,4.42,0,0,1,.63-2.35,4.33,4.33,0,0,1,1.73-1.61,5.55,5.55,0,0,1,4.94,0,4.33,4.33,0,0,1,1.73,1.61,4.42,4.42,0,0,1,.63,2.35,4.67,4.67,0,0,1-.43,2,4.32,4.32,0,0,1-1.23,1.55h2.56v1.13h-4.51v-1.05a4.06,4.06,0,0,0,1.71-1.5,3.72,3.72,0,0,0,.6-2,3.59,3.59,0,0,0-.45-1.8,3.15,3.15,0,0,0-1.26-1.22,4.09,4.09,0,0,0-3.65,0,3.19,3.19,0,0,0-1.25,1.22,3.59,3.59,0,0,0-.45,1.8,3.79,3.79,0,0,0,.6,2.07,4.18,4.18,0,0,0,1.7,1.48v1.05h-4.5Z" transform="translate(-606.24 -545.49)"/><path d="M612.12,592.47a2.44,2.44,0,0,1,.92,2,2.74,2.74,0,0,1-.39,1.45,2.52,2.52,0,0,1-1.16,1,4.32,4.32,0,0,1-1.9.38,5.75,5.75,0,0,1-1.86-.3,4,4,0,0,1-1.49-.81l.6-1a3.35,3.35,0,0,0,1.2.71,4.36,4.36,0,0,0,1.53.27,2.58,2.58,0,0,0,1.6-.44,1.42,1.42,0,0,0,.57-1.19,1.39,1.39,0,0,0-.63-1.24,3.9,3.9,0,0,0-2.13-.43h-2.07l.48-4.76h5.14v1.13h-4l-.25,2.5h1A4.57,4.57,0,0,1,612.12,592.47Z" transform="translate(-606.24 -545.49)"/><path d="M622.78,588.1l-4,9.11h-1.29l-4-9.11h1.41l3.28,7.48,3.3-7.48Z" transform="translate(-606.24 -545.49)"/><path d="M720.2,623.46h1.3v9.11h-1.3Z" transform="translate(-606.24 -545.49)"/><path d="M725.39,629.88v4.77h-.67v-4.18h-1.08v-.59Z" transform="translate(-606.24 -545.49)"/><line class="cls-3" x1="106.12" y1="92.77" x2="126.24" y2="92.77"/><polygon class="cls-4" points="106.89 95.42 102.32 92.77 106.89 90.13 106.89 95.42"/><g id="Resistencia-3" data-name="Resistencia"><line class="cls-1" x1="314.25" y1="21.3" x2="326.75" y2="21.3"/><line class="cls-1" x1="329.87" y1="15.05" x2="326.73" y2="21.3"/><line class="cls-1" x1="336.12" y1="27.55" x2="329.87" y2="15.05"/><line class="cls-1" x1="342.37" y1="15.05" x2="336.12" y2="27.55"/><line class="cls-1" x1="348.62" y1="27.55" x2="342.37" y2="15.05"/><line class="cls-1" x1="354.87" y1="15.05" x2="348.62" y2="27.55"/><line class="cls-1" x1="358" y1="21.3" x2="354.86" y2="15.05"/><line class="cls-1" x1="364.25" y1="21.3" x2="358" y2="21.3"/></g><line class="cls-2" x1="307.74" y1="45.46" x2="316.07" y2="45.46"/><line class="cls-2" x1="311.9" y1="41.3" x2="311.9" y2="49.63"/><line class="cls-1" x1="278.57" y1="55.98" x2="316.07" y2="55.98"/><line class="cls-1" x1="290.76" y1="64.63" x2="304.63" y2="64.63"/><line class="cls-1" x1="297.69" y1="64.63" x2="297.69" y2="80.56"/><line class="cls-1" x1="297.69" y1="40.05" x2="297.69" y2="55.98"/><line class="cls-1" x1="364.25" y1="21.3" x2="387.1" y2="21.3"/><line class="cls-1" x1="297.69" y1="40.05" x2="297.69" y2="21.3"/><line class="cls-1" x1="314.25" y1="21.3" x2="297.69" y2="21.3"/><line class="cls-1" x1="297.69" y1="80.56" x2="297.69" y2="100.62"/><line class="cls-1" x1="387.1" y1="21.3" x2="387.1" y2="100.62"/><line class="cls-1" x1="297.69" y1="100.62" x2="387.1" y2="100.62"/><line class="cls-2" x1="232.23" y1="48.02" x2="251.75" y2="48.02"/><line class="cls-2" x1="232.23" y1="55.18" x2="251.75" y2="55.18"/><line class="cls-2" x1="232.23" y1="62.35" x2="251.75" y2="62.35"/><path d="M879.23,592.47a2.44,2.44,0,0,1,.92,2,2.74,2.74,0,0,1-.39,1.45,2.52,2.52,0,0,1-1.16,1,4.32,4.32,0,0,1-1.9.38,5.8,5.8,0,0,1-1.86-.3,4,4,0,0,1-1.49-.81l.6-1a3.35,3.35,0,0,0,1.2.71,4.36,4.36,0,0,0,1.53.27,2.58,2.58,0,0,0,1.6-.44,1.42,1.42,0,0,0,.57-1.19,1.39,1.39,0,0,0-.63-1.24,3.9,3.9,0,0,0-2.13-.43H874l.48-4.76h5.14v1.13h-4l-.25,2.5h1A4.57,4.57,0,0,1,879.23,592.47Z" transform="translate(-606.24 -545.49)"/><path d="M889.89,588.1l-4,9.11H884.6l-4-9.11H882l3.28,7.48,3.3-7.48Z" transform="translate(-606.24 -545.49)"/><path d="M948.29,623.46h1.3v9.11h-1.3Z" transform="translate(-606.24 -545.49)"/><path d="M955.54,634.06v.59h-3.43v-.47l1.94-1.87a2.21,2.21,0,0,0,.48-.59,1.11,1.11,0,0,0,.12-.5.71.71,0,0,0-.26-.58,1.19,1.19,0,0,0-.75-.21,1.47,1.47,0,0,0-1.22.52l-.46-.4a1.67,1.67,0,0,1,.73-.53,2.53,2.53,0,0,1,1-.19,1.89,1.89,0,0,1,1.19.35,1.21,1.21,0,0,1,.44,1,1.66,1.66,0,0,1-.16.73,3.1,3.1,0,0,1-.62.77l-1.46,1.41Z" transform="translate(-606.24 -545.49)"/><line class="cls-3" x1="334.21" y1="92.77" x2="354.33" y2="92.77"/><polygon class="cls-4" points="334.98 95.42 330.4 92.77 334.98 90.13 334.98 95.42"/></svg>